<svg xmlns="http://www.w3.org/2000/svg" width="900" height="260" viewBox="0 0 900 260" role="img" aria-labelledby="gt gd"><title id="gt">Side quest: anime runner mini-game</title><desc id="gd">An original chibi character in headphones runs through a Tokyo night city, jumps over a bug and a 404 block, and collects a paper and a trophy while the score climbs from 2024 to 2026.</desc><defs>
<linearGradient id="flow" gradientUnits="userSpaceOnUse" x1="0" y1="0" x2="900" y2="0" spreadMethod="repeat"><stop offset="0" stop-color="#4568dc"/><stop offset=".25" stop-color="#b06ab3"/><stop offset=".5" stop-color="#fc00ff"/><stop offset=".75" stop-color="#00dbde"/><stop offset="1" stop-color="#4568dc"/><animateTransform attributeName="gradientTransform" type="translate" from="0 0" to="900 0" dur="6s" repeatCount="indefinite"/></linearGradient>
<linearGradient id="sky" x1="0" y1="0" x2="0" y2="1"><stop offset="0" stop-color="#090d24"/><stop offset=".55" stop-color="#1b1446"/><stop offset=".85" stop-color="#3a1f5e"/><stop offset="1" stop-color="#5a2d6e"/></linearGradient>
<linearGradient id="hair" x1="0" y1="0" x2="1" y2="1"><stop offset="0" stop-color="#3b2a7a"/><stop offset="1" stop-color="#8a5fd6"/></linearGradient>
<linearGradient id="hoodie" x1="0" y1="0" x2="0" y2="1"><stop offset="0" stop-color="#8a78ff"/><stop offset="1" stop-color="#5b4fd0"/></linearGradient>
<linearGradient id="iris" x1="0" y1="0" x2="0" y2="1"><stop offset="0" stop-color="#4568dc"/><stop offset="1" stop-color="#00dbde"/></linearGradient>
<linearGradient id="gold" x1="0" y1="0" x2="0" y2="1"><stop offset="0" stop-color="#ffe29a"/><stop offset="1" stop-color="#f4a261"/></linearGradient>
<filter id="glow" x="-50%" y="-50%" width="200%" height="200%"><feGaussianBlur stdDeviation="6"/></filter>
<mask id="moon"><rect x="740" y="25" width="70" height="70" fill="#fff"/><circle cx="784" cy="48" r="20" fill="#000"/></mask>
<clipPath id="frame"><rect width="900" height="260" rx="18"/></clipPath>
<g id="far"><rect x="0" y="137" width="43" height="75" fill="#1c1646"/><rect x="15" y="145" width="4" height="5" fill="#ffd166" fill-opacity="0.4"/><rect x="33" y="156" width="4" height="5" fill="#ffd166" fill-opacity="0.4"/><rect x="6" y="167" width="4" height="5" fill="#ffd166" fill-opacity="0.4"/><rect x="15" y="178" width="4" height="5" fill="#ffd166" fill-opacity="0.4"/><rect x="24" y="200" width="4" height="5" fill="#ffd166" fill-opacity="0.4"/><rect x="53" y="160" width="52" height="52" fill="#1c1646"/><rect x="77" y="168" width="4" height="5" fill="#ffd166" fill-opacity="0.4"/><rect x="77" y="190" width="4" height="5" fill="#ffd166" fill-opacity="0.4"/><rect x="77" y="201" width="4" height="5" fill="#ffd166" fill-opacity="0.4"/><rect x="114" y="158" width="54" height="54" fill="#1c1646"/><rect x="129" y="188" width="4" height="5" fill="#ffd166" fill-opacity="0.4"/><rect x="129" y="199" width="4" height="5" fill="#ffd166" fill-opacity="0.4"/><rect x="170" y="124" width="42" height="88" fill="#1c1646"/><rect x="185" y="154" width="4" height="5" fill="#ffd166" fill-opacity="0.4"/><rect x="203" y="176" width="4" height="5" fill="#ffd166" fill-opacity="0.4"/><rect x="220" y="115" width="68" height="97" fill="#1c1646"/><rect x="253" y="123" width="4" height="5" fill="#ffd166" fill-opacity="0.4"/><rect x="244" y="145" width="4" height="5" fill="#ffd166" fill-opacity="0.4"/><rect x="262" y="145" width="4" height="5" fill="#ffd166" fill-opacity="0.4"/><rect x="280" y="145" width="4" height="5" fill="#ffd166" fill-opacity="0.4"/><rect x="226" y="156" width="4" height="5" fill="#ffd166" fill-opacity="0.4"/><rect x="262" y="156" width="4" height="5" fill="#ffd166" fill-opacity="0.4"/><rect x="226" y="167" width="4" height="5" fill="#ffd166" fill-opacity="0.4"/><rect x="262" y="167" width="4" height="5" fill="#ffd166" fill-opacity="0.4"/><rect x="244" y="178" width="4" height="5" fill="#ffd166" fill-opacity="0.4"/><rect x="271" y="178" width="4" height="5" fill="#ffd166" fill-opacity="0.4"/><rect x="280" y="189" width="4" height="5" fill="#ffd166" fill-opacity="0.4"/><rect x="271" y="200" width="4" height="5" fill="#ffd166" fill-opacity="0.4"/><rect x="298" y="141" width="50" height="71" fill="#1c1646"/><rect x="322" y="149" width="4" height="5" fill="#ffd166" fill-opacity="0.4"/><rect x="331" y="171" width="4" height="5" fill="#ffd166" fill-opacity="0.4"/><rect x="313" y="182" width="4" height="5" fill="#ffd166" fill-opacity="0.4"/><rect x="340" y="182" width="4" height="5" fill="#ffd166" fill-opacity="0.4"/><rect x="304" y="193" width="4" height="5" fill="#ffd166" fill-opacity="0.4"/><rect x="356" y="143" width="42" height="69" fill="#1c1646"/><rect x="380" y="162" width="4" height="5" fill="#ffd166" fill-opacity="0.4"/><rect x="371" y="184" width="4" height="5" fill="#ffd166" fill-opacity="0.4"/><rect x="371" y="195" width="4" height="5" fill="#ffd166" fill-opacity="0.4"/><rect x="389" y="195" width="4" height="5" fill="#ffd166" fill-opacity="0.4"/><rect x="402" y="163" width="69" height="49" fill="#1c1646"/><rect x="417" y="182" width="4" height="5" fill="#ffd166" fill-opacity="0.4"/><rect x="478" y="142" width="46" height="70" fill="#1c1646"/><rect x="484" y="194" width="4" height="5" fill="#ffd166" fill-opacity="0.4"/><rect x="511" y="194" width="4" height="5" fill="#ffd166" fill-opacity="0.4"/><rect x="527" y="131" width="35" height="81" fill="#1c1646"/><rect x="551" y="172" width="4" height="5" fill="#ffd166" fill-opacity="0.4"/><rect x="533" y="194" width="4" height="5" fill="#ffd166" fill-opacity="0.4"/><rect x="566" y="147" width="52" height="65" fill="#1c1646"/><rect x="572" y="166" width="4" height="5" fill="#ffd166" fill-opacity="0.4"/><rect x="590" y="199" width="4" height="5" fill="#ffd166" fill-opacity="0.4"/><rect x="623" y="156" width="68" height="56" fill="#1c1646"/><rect x="647" y="164" width="4" height="5" fill="#ffd166" fill-opacity="0.4"/><rect x="665" y="164" width="4" height="5" fill="#ffd166" fill-opacity="0.4"/><rect x="683" y="164" width="4" height="5" fill="#ffd166" fill-opacity="0.4"/><rect x="647" y="175" width="4" height="5" fill="#ffd166" fill-opacity="0.4"/><rect x="665" y="186" width="4" height="5" fill="#ffd166" fill-opacity="0.4"/><rect x="700" y="145" width="59" height="67" fill="#1c1646"/><rect x="706" y="175" width="4" height="5" fill="#ffd166" fill-opacity="0.4"/><rect x="751" y="186" width="4" height="5" fill="#ffd166" fill-opacity="0.4"/><rect x="733" y="197" width="4" height="5" fill="#ffd166" fill-opacity="0.4"/><rect x="766" y="122" width="40" height="90" fill="#1c1646"/><rect x="781" y="152" width="4" height="5" fill="#ffd166" fill-opacity="0.4"/><rect x="790" y="163" width="4" height="5" fill="#ffd166" fill-opacity="0.4"/><rect x="781" y="185" width="4" height="5" fill="#ffd166" fill-opacity="0.4"/><rect x="815" y="148" width="66" height="64" fill="#1c1646"/><rect x="821" y="178" width="4" height="5" fill="#ffd166" fill-opacity="0.4"/><rect x="857" y="178" width="4" height="5" fill="#ffd166" fill-opacity="0.4"/><rect x="866" y="178" width="4" height="5" fill="#ffd166" fill-opacity="0.4"/><rect x="830" y="189" width="4" height="5" fill="#ffd166" fill-opacity="0.4"/><rect x="888" y="163" width="50" height="49" fill="#1c1646"/><rect x="903" y="171" width="4" height="5" fill="#ffd166" fill-opacity="0.4"/></g>
<g id="near"><rect x="0" y="86" width="39" height="126" fill="#110b2b"/><rect x="47" y="101" width="68" height="111" fill="#110b2b"/><rect x="62" y="164" width="4" height="5" fill="#8be9ff" fill-opacity="0.55"/><rect x="53" y="175" width="4" height="5" fill="#8be9ff" fill-opacity="0.55"/><rect x="124" y="127" width="39" height="85" fill="#110b2b"/><rect x="148" y="135" width="4" height="5" fill="#8be9ff" fill-opacity="0.55"/><rect x="148" y="168" width="4" height="5" fill="#8be9ff" fill-opacity="0.55"/><rect x="130" y="201" width="4" height="5" fill="#8be9ff" fill-opacity="0.55"/><rect x="170" y="132" width="65" height="80" fill="#110b2b"/><rect x="176" y="151" width="4" height="5" fill="#8be9ff" fill-opacity="0.55"/><rect x="221" y="151" width="4" height="5" fill="#8be9ff" fill-opacity="0.55"/><rect x="194" y="173" width="4" height="5" fill="#8be9ff" fill-opacity="0.55"/><rect x="185" y="195" width="4" height="5" fill="#8be9ff" fill-opacity="0.55"/><rect x="221" y="195" width="4" height="5" fill="#8be9ff" fill-opacity="0.55"/><rect x="237" y="92" width="38" height="120" fill="#110b2b"/><rect x="243" y="177" width="4" height="5" fill="#8be9ff" fill-opacity="0.55"/><rect x="243" y="188" width="4" height="5" fill="#8be9ff" fill-opacity="0.55"/><rect x="283" y="118" width="35" height="94" fill="#110b2b"/><rect x="289" y="148" width="4" height="5" fill="#8be9ff" fill-opacity="0.55"/><rect x="298" y="170" width="4" height="5" fill="#8be9ff" fill-opacity="0.55"/><rect x="320" y="95" width="47" height="117" fill="#110b2b"/><rect x="335" y="114" width="4" height="5" fill="#8be9ff" fill-opacity="0.55"/><rect x="335" y="147" width="4" height="5" fill="#8be9ff" fill-opacity="0.55"/><rect x="335" y="158" width="4" height="5" fill="#8be9ff" fill-opacity="0.55"/><rect x="353" y="158" width="4" height="5" fill="#8be9ff" fill-opacity="0.55"/><rect x="335" y="169" width="4" height="5" fill="#8be9ff" fill-opacity="0.55"/><rect x="326" y="191" width="4" height="5" fill="#8be9ff" fill-opacity="0.55"/><rect x="372" y="140" width="36" height="72" fill="#110b2b"/><rect x="378" y="192" width="4" height="5" fill="#8be9ff" fill-opacity="0.55"/><rect x="387" y="192" width="4" height="5" fill="#8be9ff" fill-opacity="0.55"/><rect x="418" y="88" width="49" height="124" fill="#110b2b"/><rect x="433" y="129" width="4" height="5" fill="#8be9ff" fill-opacity="0.55"/><rect x="433" y="151" width="4" height="5" fill="#8be9ff" fill-opacity="0.55"/><rect x="442" y="151" width="4" height="5" fill="#8be9ff" fill-opacity="0.55"/><rect x="451" y="173" width="4" height="5" fill="#8be9ff" fill-opacity="0.55"/><rect x="460" y="173" width="4" height="5" fill="#8be9ff" fill-opacity="0.55"/><rect x="451" y="184" width="4" height="5" fill="#8be9ff" fill-opacity="0.55"/><rect x="472" y="112" width="54" height="100" fill="#110b2b"/><rect x="534" y="112" width="42" height="100" fill="#110b2b"/><rect x="558" y="175" width="4" height="5" fill="#8be9ff" fill-opacity="0.55"/><rect x="578" y="125" width="40" height="87" fill="#110b2b"/><rect x="602" y="177" width="4" height="5" fill="#8be9ff" fill-opacity="0.55"/><rect x="627" y="102" width="55" height="110" fill="#110b2b"/><rect x="642" y="132" width="4" height="5" fill="#8be9ff" fill-opacity="0.55"/><rect x="669" y="132" width="4" height="5" fill="#8be9ff" fill-opacity="0.55"/><rect x="669" y="143" width="4" height="5" fill="#8be9ff" fill-opacity="0.55"/><rect x="651" y="165" width="4" height="5" fill="#8be9ff" fill-opacity="0.55"/><rect x="642" y="187" width="4" height="5" fill="#8be9ff" fill-opacity="0.55"/><rect x="692" y="107" width="45" height="105" fill="#110b2b"/><rect x="707" y="115" width="4" height="5" fill="#8be9ff" fill-opacity="0.55"/><rect x="746" y="104" width="54" height="108" fill="#110b2b"/><rect x="761" y="112" width="4" height="5" fill="#8be9ff" fill-opacity="0.55"/><rect x="761" y="123" width="4" height="5" fill="#8be9ff" fill-opacity="0.55"/><rect x="779" y="123" width="4" height="5" fill="#8be9ff" fill-opacity="0.55"/><rect x="788" y="123" width="4" height="5" fill="#8be9ff" fill-opacity="0.55"/><rect x="779" y="134" width="4" height="5" fill="#8be9ff" fill-opacity="0.55"/><rect x="761" y="156" width="4" height="5" fill="#8be9ff" fill-opacity="0.55"/><rect x="779" y="156" width="4" height="5" fill="#8be9ff" fill-opacity="0.55"/><rect x="761" y="178" width="4" height="5" fill="#8be9ff" fill-opacity="0.55"/><rect x="761" y="189" width="4" height="5" fill="#8be9ff" fill-opacity="0.55"/><rect x="770" y="200" width="4" height="5" fill="#8be9ff" fill-opacity="0.55"/><rect x="802" y="114" width="52" height="98" fill="#110b2b"/><rect x="817" y="144" width="4" height="5" fill="#8be9ff" fill-opacity="0.55"/><rect x="844" y="177" width="4" height="5" fill="#8be9ff" fill-opacity="0.55"/><rect x="826" y="188" width="4" height="5" fill="#8be9ff" fill-opacity="0.55"/><rect x="844" y="188" width="4" height="5" fill="#8be9ff" fill-opacity="0.55"/><rect x="861" y="135" width="50" height="77" fill="#110b2b"/><rect x="894" y="143" width="4" height="5" fill="#8be9ff" fill-opacity="0.55"/><rect x="894" y="176" width="4" height="5" fill="#8be9ff" fill-opacity="0.55"/><rect x="903" y="187" width="4" height="5" fill="#8be9ff" fill-opacity="0.55"/><g fill="#8a1f45"><path d="M612 118 Q660 110 708 118 L706 126 Q660 119 614 126 Z"/><rect x="620" y="132" width="80" height="6"/><rect x="628" y="124" width="8" height="86"/><rect x="684" y="124" width="8" height="86"/></g><g class="neon" style="animation-delay:2.05s"><rect x="110" y="100" width="38" height="18" rx="4" fill="#0b0720" stroke="#00dbde" stroke-width="1.6"/><text x="129.0" y="113" text-anchor="middle" font-family="ui-monospace, SFMono-Regular, Menlo, Consolas, 'Liberation Mono', monospace" font-size="11" font-weight="700" fill="#00dbde">AI</text></g><g class="neon" style="animation-delay:2.30s"><rect x="300" y="88" width="44" height="18" rx="4" fill="#0b0720" stroke="#fc00ff" stroke-width="1.6"/><text x="322.0" y="101" text-anchor="middle" font-family="ui-monospace, SFMono-Regular, Menlo, Consolas, 'Liberation Mono', monospace" font-size="11" font-weight="700" fill="#fc00ff">LLM</text></g><g class="neon" style="animation-delay:0.90s"><rect x="470" y="110" width="48" height="18" rx="4" fill="#0b0720" stroke="#ff77c8" stroke-width="1.6"/><text x="494.0" y="123" text-anchor="middle" font-family="ui-monospace, SFMono-Regular, Menlo, Consolas, 'Liberation Mono', monospace" font-size="12" font-weight="700" fill="#ff77c8">東京</text></g><g class="neon" style="animation-delay:1.45s"><rect x="800" y="96" width="44" height="18" rx="4" fill="#0b0720" stroke="#00dbde" stroke-width="1.6"/><text x="822.0" y="109" text-anchor="middle" font-family="ui-monospace, SFMono-Regular, Menlo, Consolas, 'Liberation Mono', monospace" font-size="11" font-weight="700" fill="#00dbde">RAG</text></g></g>
</defs><style>.tw{animation:tw 2.6s ease-in-out infinite}@keyframes tw{0%,100%{opacity:.25}50%{opacity:1}} .farL{animation:par 48s linear infinite}.nearL{animation:par 18s linear infinite} @keyframes par{from{transform:translateX(0)}to{transform:translateX(-900px)}} .neon{animation:neon 3.4s steps(1) infinite}@keyframes neon{0%,100%{opacity:1}46%{opacity:.35}49%{opacity:1}52%{opacity:.5}55%{opacity:1}} .lane{stroke-dasharray:26 18;animation:lane .264s linear infinite}@keyframes lane{to{stroke-dashoffset:-44}} .petal{animation-name:fall;animation-timing-function:linear;animation-iteration-count:infinite} @keyframes fall{from{transform:translate(0,0) rotate(0)}to{transform:translate(-150px,290px) rotate(540deg)}} .bob{animation:bob .44s ease-in-out infinite}@keyframes bob{0%,100%{transform:translateY(0)}50%{transform:translateY(-3px)}} .legF,.legB,.armF,.armB{transform-box:fill-box;transform-origin:50% 8%} .legF{animation:swing .44s ease-in-out infinite}.legB{animation:swing .44s ease-in-out -.22s infinite} .armF{animation:swing2 .44s ease-in-out -.22s infinite}.armB{animation:swing2 .44s ease-in-out infinite} @keyframes swing{0%,100%{transform:rotate(34deg)}50%{transform:rotate(-34deg)}} @keyframes swing2{0%,100%{transform:rotate(40deg)}50%{transform:rotate(-40deg)}} .tail{transform-box:fill-box;transform-origin:95% 5%;animation:tail .44s ease-in-out infinite}@keyframes tail{0%,100%{transform:rotate(-6deg)}50%{transform:rotate(9deg)}} .ahoge{transform-box:fill-box;transform-origin:10% 100%;animation:tail .88s ease-in-out infinite} .eyes{transform-box:fill-box;transform-origin:50% 60%;animation:blink 3.2s infinite}@keyframes blink{0%,93%,100%{transform:scaleY(1)}96%{transform:scaleY(.12)}} .cup{animation:tw 1.6s ease-in-out infinite} .dust{animation:dust .44s linear infinite}@keyframes dust{0%{opacity:.9;transform:translateX(0)}100%{opacity:0;transform:translateX(-14px)}} .jump{animation:jump 6.0s infinite} @keyframes jump{0%,20.5%{transform:translateY(0);animation-timing-function:cubic-bezier(.2,.75,.35,1)} 27%{transform:translateY(-72px);animation-timing-function:cubic-bezier(.65,0,.8,.25)}33.5%,70.5%{transform:translateY(0);animation-timing-function:cubic-bezier(.2,.75,.35,1)} 77%{transform:translateY(-72px);animation-timing-function:cubic-bezier(.65,0,.8,.25)}83.5%,100%{transform:translateY(0)}} .shadowRun{transform-box:fill-box;transform-origin:50% 50%;animation:shadow 6.0s infinite} @keyframes shadow{0%,20.5%,33.5%,70.5%,83.5%,100%{transform:scale(1);opacity:1}27%,77%{transform:scale(.5);opacity:.5}} .move{transform:translateX(-430px);animation:move 6.0s linear infinite}.moveB{transform:translateX(-640px);animation-delay:-3.0s} @keyframes move{from{transform:translateX(0)}to{transform:translateX(-1000px)}} .item{transform-box:fill-box;transform-origin:50% 50%;animation:collect 6.0s infinite}.itemB{animation-delay:-3.0s} @keyframes collect{0%,76.4%{opacity:1;transform:translateY(0) scale(1)}80%{opacity:0;transform:translateY(-16px) scale(1.8)}80.1%,100%{opacity:0;transform:translateY(0) scale(1)}} .hover{animation:hover 1.3s ease-in-out infinite}@keyframes hover{0%,100%{transform:translateY(-3px)}50%{transform:translateY(3px)}} .legs{animation:bugleg .22s steps(2) infinite}@keyframes bugleg{50%{transform:translateY(-1.5px)}} .glitch{animation:glitch 1.1s steps(1) infinite}@keyframes glitch{0%,100%{transform:none}20%{transform:translateX(2px)}24%{transform:translateX(-2px)}28%{transform:none}} .spark{animation:tw 1s ease-in-out infinite} .pop{opacity:0;animation:pop 6.0s infinite}.popB{animation-delay:-3.0s} @keyframes pop{0%,76.9%{opacity:0;transform:translateY(0)}78.5%{opacity:1;transform:translateY(-4px)}90%{opacity:0;transform:translateY(-24px)}100%{opacity:0}} .s0,.s1,.aO,.pO{opacity:0} .s0{animation:s0 6.0s infinite}.s1{animation:s1 6.0s infinite}.s2{animation:s2 6.0s infinite} @keyframes s0{0%,26.9%{opacity:1}27%,100%{opacity:0}}@keyframes s1{0%,26.9%{opacity:0}27%,76.9%{opacity:1}77%,100%{opacity:0}}@keyframes s2{0%,76.9%{opacity:0}77%,100%{opacity:1}} .aO{animation:s0 6.0s infinite}.aN{animation:aN 6.0s infinite}@keyframes aN{0%,26.9%{opacity:0}27%,100%{opacity:1}} .pO{animation:pO 6.0s infinite}.pN{animation:s2 6.0s infinite}@keyframes pO{0%,76.9%{opacity:1}77%,100%{opacity:0}} .hearts{transform-box:fill-box;transform-origin:50% 50%;animation:beat 1.2s ease-in-out infinite}@keyframes beat{0%,100%{transform:scale(1)}15%{transform:scale(1.12)}} .press{animation:tw 1.4s steps(2) infinite} @media (prefers-reduced-motion: reduce){*{animation:none!important}}</style><g clip-path="url(#frame)">
<rect width="900" height="260" fill="url(#sky)"/>
<ellipse cx="450" cy="210" rx="560" ry="80" fill="#fc00ff" opacity=".12" filter="url(#glow)"/>
<circle class="tw" style="animation-delay:0.36s" cx="524" cy="73" r="0.8" fill="#fff"/><circle class="tw" style="animation-delay:2.65s" cx="625" cy="87" r="1.5" fill="#fff"/><circle class="tw" style="animation-delay:2.35s" cx="570" cy="115" r="1.5" fill="#fff"/><circle class="tw" style="animation-delay:2.25s" cx="610" cy="64" r="1" fill="#fff"/><circle class="tw" style="animation-delay:0.01s" cx="92" cy="22" r="1.2" fill="#fff"/><circle class="tw" style="animation-delay:2.45s" cx="470" cy="9" r="1.5" fill="#fff"/><circle class="tw" style="animation-delay:2.04s" cx="225" cy="58" r="1.2" fill="#fff"/><circle class="tw" style="animation-delay:1.04s" cx="375" cy="111" r="1.5" fill="#fff"/><circle class="tw" style="animation-delay:3.00s" cx="535" cy="89" r="0.8" fill="#fff"/><circle class="tw" style="animation-delay:2.17s" cx="101" cy="79" r="1.2" fill="#fff"/><circle class="tw" style="animation-delay:0.86s" cx="154" cy="120" r="1.2" fill="#fff"/><circle class="tw" style="animation-delay:0.07s" cx="737" cy="55" r="1.2" fill="#fff"/><circle class="tw" style="animation-delay:1.38s" cx="102" cy="59" r="1.5" fill="#fff"/><circle class="tw" style="animation-delay:2.60s" cx="445" cy="72" r="1.5" fill="#fff"/><circle class="tw" style="animation-delay:1.19s" cx="547" cy="41" r="1.5" fill="#fff"/><circle class="tw" style="animation-delay:1.69s" cx="500" cy="73" r="0.8" fill="#fff"/><circle class="tw" style="animation-delay:1.73s" cx="794" cy="24" r="0.8" fill="#fff"/><circle class="tw" style="animation-delay:2.89s" cx="545" cy="121" r="0.8" fill="#fff"/><circle class="tw" style="animation-delay:2.15s" cx="449" cy="68" r="1" fill="#fff"/><circle class="tw" style="animation-delay:1.45s" cx="244" cy="116" r="0.8" fill="#fff"/><circle class="tw" style="animation-delay:1.88s" cx="477" cy="94" r="1.5" fill="#fff"/><circle class="tw" style="animation-delay:2.14s" cx="568" cy="40" r="1.5" fill="#fff"/><circle class="tw" style="animation-delay:2.01s" cx="325" cy="78" r="1.5" fill="#fff"/><circle class="tw" style="animation-delay:2.41s" cx="421" cy="63" r="1" fill="#fff"/><circle class="tw" style="animation-delay:0.88s" cx="285" cy="9" r="0.8" fill="#fff"/><circle class="tw" style="animation-delay:0.45s" cx="621" cy="66" r="1.5" fill="#fff"/><circle class="tw" style="animation-delay:1.08s" cx="214" cy="41" r="1.5" fill="#fff"/><circle class="tw" style="animation-delay:1.40s" cx="795" cy="113" r="1.5" fill="#fff"/><circle class="tw" style="animation-delay:2.42s" cx="581" cy="92" r="0.8" fill="#fff"/><circle class="tw" style="animation-delay:2.49s" cx="334" cy="66" r="0.8" fill="#fff"/><circle class="tw" style="animation-delay:1.32s" cx="743" cy="108" r="1.2" fill="#fff"/><circle class="tw" style="animation-delay:1.36s" cx="197" cy="62" r="1.5" fill="#fff"/><circle class="tw" style="animation-delay:2.82s" cx="674" cy="42" r="1.5" fill="#fff"/><circle class="tw" style="animation-delay:1.11s" cx="209" cy="103" r="1.5" fill="#fff"/>
<g filter="url(#glow)" opacity=".6"><circle cx="772" cy="56" r="30" fill="#ffe9b0" opacity=".35"/></g>
<circle cx="772" cy="56" r="23" fill="#fff3cf" mask="url(#moon)"/>
<g class="farL" opacity=".9"><use href="#far"/><use href="#far" x="900"/></g>
<g class="nearL"><use href="#near"/><use href="#near" x="900"/></g>
<rect y="210" width="900" height="50" fill="#090619"/>
<line x1="0" y1="210.5" x2="900" y2="210.5" stroke="url(#flow)" stroke-width="2.5"/>
<line class="lane" x1="0" y1="234" x2="900" y2="234" stroke="#4568dc" stroke-width="3" opacity=".55"/>
<g transform="translate(979,-12)"><g class="petal" style="animation-duration:8.2s;animation-delay:-2.7s"><path d="M0 0 C3 -5 9 -4 8 1 C7 5 2 5 0 0Z" fill="#ffb7d5" opacity=".9"/></g></g><g transform="translate(442,-12)"><g class="petal" style="animation-duration:10.6s;animation-delay:-9.5s"><path d="M0 0 C3 -5 9 -4 8 1 C7 5 2 5 0 0Z" fill="#ffb7d5" opacity=".9"/></g></g><g transform="translate(770,-12)"><g class="petal" style="animation-duration:7.4s;animation-delay:-3.1s"><path d="M0 0 C3 -5 9 -4 8 1 C7 5 2 5 0 0Z" fill="#ffb7d5" opacity=".9"/></g></g><g transform="translate(304,-12)"><g class="petal" style="animation-duration:10.9s;animation-delay:-8.2s"><path d="M0 0 C3 -5 9 -4 8 1 C7 5 2 5 0 0Z" fill="#ffb7d5" opacity=".9"/></g></g><g transform="translate(113,-12)"><g class="petal" style="animation-duration:8.9s;animation-delay:-2.8s"><path d="M0 0 C3 -5 9 -4 8 1 C7 5 2 5 0 0Z" fill="#ffb7d5" opacity=".9"/></g></g><g transform="translate(174,-12)"><g class="petal" style="animation-duration:10.9s;animation-delay:-7.0s"><path d="M0 0 C3 -5 9 -4 8 1 C7 5 2 5 0 0Z" fill="#ffb7d5" opacity=".9"/></g></g><g transform="translate(893,-12)"><g class="petal" style="animation-duration:7.2s;animation-delay:-0.7s"><path d="M0 0 C3 -5 9 -4 8 1 C7 5 2 5 0 0Z" fill="#ffb7d5" opacity=".9"/></g></g><g transform="translate(814,-12)"><g class="petal" style="animation-duration:8.7s;animation-delay:-8.8s"><path d="M0 0 C3 -5 9 -4 8 1 C7 5 2 5 0 0Z" fill="#ffb7d5" opacity=".9"/></g></g><g transform="translate(709,-12)"><g class="petal" style="animation-duration:7.8s;animation-delay:-5.4s"><path d="M0 0 C3 -5 9 -4 8 1 C7 5 2 5 0 0Z" fill="#ffb7d5" opacity=".9"/></g></g><g transform="translate(70,-12)"><g class="petal" style="animation-duration:10.9s;animation-delay:-2.0s"><path d="M0 0 C3 -5 9 -4 8 1 C7 5 2 5 0 0Z" fill="#ffb7d5" opacity=".9"/></g></g><g transform="translate(681,-12)"><g class="petal" style="animation-duration:10.4s;animation-delay:-0.9s"><path d="M0 0 C3 -5 9 -4 8 1 C7 5 2 5 0 0Z" fill="#ffb7d5" opacity=".9"/></g></g><g transform="translate(550,-12)"><g class="petal" style="animation-duration:10.9s;animation-delay:-8.4s"><path d="M0 0 C3 -5 9 -4 8 1 C7 5 2 5 0 0Z" fill="#ffb7d5" opacity=".9"/></g></g>
<g transform="translate(940,210)"><g class="move "><g class="legs"><path d="M-10 -4 l-6 4 M-2 -3 l-3 6 M8 -4 l6 4" stroke="#7a1030" stroke-width="2.2" stroke-linecap="round"/></g>
<ellipse cx="0" cy="-14" rx="18" ry="12.5" fill="#ff4d6d"/><path d="M0 -26 V-2" stroke="#b3123c" stroke-width="1.6"/>
<text x="-7.5" y="-10" font-family="ui-monospace, SFMono-Regular, Menlo, Consolas, 'Liberation Mono', monospace" font-size="9" font-weight="700" fill="#fff">{}</text>
<circle cx="17" cy="-19" r="8.5" fill="#ff7a90"/>
<path d="M18 -27 C20 -36 26 -37 28 -34 M14 -27 C13 -36 17 -39 20 -39" stroke="#7a1030" stroke-width="1.6" fill="none" stroke-linecap="round"/>
<circle cx="20" cy="-20" r="3" fill="#fff"/><circle cx="21" cy="-19.5" r="1.4" fill="#1b1340"/>
<path d="M16.5 -25 L23.5 -23" stroke="#1b1340" stroke-width="1.6" stroke-linecap="round"/></g></g>
<g transform="translate(940,210)"><g class="move moveB"><g class="glitch">
<rect x="-18" y="-36" width="36" height="36" rx="6" fill="#22265a" stroke="#fc00ff" stroke-width="2"/>
<text x="-1" y="-13" text-anchor="middle" font-family="ui-monospace, SFMono-Regular, Menlo, Consolas, 'Liberation Mono', monospace" font-size="13" font-weight="800" fill="#fc00ff" opacity=".7">404</text>
<text x="1" y="-14" text-anchor="middle" font-family="ui-monospace, SFMono-Regular, Menlo, Consolas, 'Liberation Mono', monospace" font-size="13" font-weight="800" fill="#00dbde">404</text>
</g></g></g>
<g transform="translate(170,210)">
<g class="shadowRun"><ellipse cx="0" cy="2" rx="20" ry="4.5" fill="#000" opacity=".38"/></g>
<g class="jump"><g class="bob">
  <g class="dust"><circle cx="-18" cy="-3" r="3" fill="#b8a9ff" opacity=".5"/><circle cx="-26" cy="-6" r="2" fill="#b8a9ff" opacity=".4"/></g>
  <g class="armB"><rect x="-4" y="-50" width="8" height="17" rx="4" fill="#4b3fa8"/><circle cx="0" cy="-32" r="3.6" fill="#f2c6b2"/></g>
  <g class="legB"><rect x="-5.5" y="-26" width="7" height="21" rx="3.5" fill="#23264a"/><path d="M-7 -8 h9 a4.5 4.5 0 0 1 4.5 4.5 V-1 h-13.5z" fill="#d9ddf7"/><rect x="-7" y="-2.5" width="13.5" height="1.6" fill="#fc00ff"/></g>
  <path d="M-12 -27 L13 -27 L14.5 -19 L2.5 -17 L0.5 -21 L-1.5 -17 L-13.5 -19 Z" fill="#1f2240"/>
  <g class="legF"><rect x="-1.5" y="-26" width="7" height="21" rx="3.5" fill="#2e3163"/><path d="M-3 -8 h9 a4.5 4.5 0 0 1 4.5 4.5 V-1 h-13.5z" fill="#f5f7ff"/><rect x="-3" y="-2.5" width="13.5" height="1.6" fill="#fc00ff"/></g>
  <path d="M-13 -50 Q0 -56 13 -50 L15 -26 Q0 -21 -15 -26 Z" fill="url(#hoodie)"/>
  <path d="M-13 -50 Q-19 -45 -14 -39 Q-10 -46 -6 -50 Z" fill="#6f55d6"/>
  <path d="M-2 -50 v8 M4 -50 v7" stroke="#00dbde" stroke-width="1.4" stroke-linecap="round"/><circle cx="-2" cy="-41.5" r="1.3" fill="#00dbde"/><circle cx="4" cy="-42.5" r="1.3" fill="#00dbde"/>
  <path d="M5 -37 l1.2 2.6 2.8 .3 -2.1 1.9 .6 2.8 -2.5 -1.4 -2.5 1.4 .6 -2.8 -2.1 -1.9 2.8 -.3z" fill="#00dbde"/>
  <g class="tail"><path d="M-13 -80 C-30 -86 -41 -75 -43 -60 C-37 -66 -31 -66 -25 -70 C-31 -62 -31 -55 -35 -49 C-24 -55 -18 -65 -13 -71 Z" fill="url(#hair)"/></g>
  <path d="M-16 -70 C-18 -93 23 -97 24 -70 L23 -55 L-15 -55 Z" fill="url(#hair)"/>
  <ellipse cx="4" cy="-66" rx="16.5" ry="17" fill="#ffe3d3"/>
  <ellipse cx="-1" cy="-56.5" rx="3.2" ry="1.7" fill="#ff8fb3" opacity=".55"/><ellipse cx="16" cy="-56.5" rx="3.2" ry="1.7" fill="#ff8fb3" opacity=".55"/>
  <g class="eyes">
    <ellipse cx="2" cy="-64" rx="3.3" ry="4.8" fill="url(#iris)"/><ellipse cx="2.4" cy="-63.2" rx="1.6" ry="2.6" fill="#1b1340"/><circle cx="1.2" cy="-66" r="1.2" fill="#fff"/>
    <ellipse cx="13.5" cy="-64" rx="3.3" ry="4.8" fill="url(#iris)"/><ellipse cx="13.9" cy="-63.2" rx="1.6" ry="2.6" fill="#1b1340"/><circle cx="12.7" cy="-66" r="1.2" fill="#fff"/>
    <path d="M-1.5 -69 Q2 -71.5 5.8 -69.3 M10 -69 Q13.5 -71.5 17.3 -69.3" stroke="#1b1340" stroke-width="1.6" fill="none" stroke-linecap="round"/>
  </g>
  <path d="M8 -55.5 Q10.5 -52.5 13 -55.5 Z" fill="#c2415f"/>
  <path d="M-15 -71 C-14 -93 23 -95 23 -70 L21 -63 L17 -72 L13 -62 L9 -73 L4 -63 L0 -73 L-5 -65 L-9 -74 L-12 -66 Z" fill="url(#hair)"/>
  <path d="M1 -86 C8 -90 15 -88 19 -80" stroke="#fc00ff" stroke-width="1.2" fill="none" opacity=".75" stroke-linecap="round"/>
  <path d="M21 -73 C25 -64 24 -56 21 -49 C20 -57 18 -63 16.5 -70 Z" fill="url(#hair)"/>
  <g class="ahoge"><path d="M5 -91 C9 -104 19 -103 13 -95" stroke="#6d4fd0" stroke-width="2.6" fill="none" stroke-linecap="round"/></g>
  <path d="M-15 -75 C-13 -99 21 -101 23 -78" stroke="#20233f" stroke-width="3.6" fill="none" stroke-linecap="round"/>
  <circle cx="-12" cy="-66" r="6.8" fill="#2b2f63"/><circle class="cup" cx="-12" cy="-66" r="6.8" fill="none" stroke="#00dbde" stroke-width="1.8"/>
  <g class="armF"><rect x="-4" y="-50" width="8" height="17" rx="4" fill="#7e6cf0"/><circle cx="0" cy="-32" r="3.6" fill="#ffe3d3"/></g>
</g></g></g>
<g transform="translate(940,210)"><g class="move "><g transform="translate(0,-128)"><g class="hover"><g class="item "><circle cx="0" cy="0" r="17" fill="#00dbde" opacity=".28" filter="url(#glow)"/>
<path d="M-10 -14 h13 l7 7 v21 h-20z" fill="#f5f7ff"/><path d="M3 -14 v7 h7" fill="#c8d0f5"/>
<path d="M-6 -3 h11 M-6 1.5 h11 M-6 6 h7" stroke="#4568dc" stroke-width="1.6" stroke-linecap="round"/></g></g></g></g></g>
<g transform="translate(940,210)"><g class="move moveB"><g transform="translate(0,-128)"><g class="hover"><g class="item itemB"><circle cx="0" cy="0" r="18" fill="#ffd166" opacity=".3" filter="url(#glow)"/>
<path d="M-10 -13 h20 v6 a10 10 0 0 1 -20 0 z" fill="url(#gold)"/>
<path d="M-10 -11 h-5 a5 5 0 0 0 5 8 M10 -11 h5 a5 5 0 0 1 -5 8" stroke="#f4a261" stroke-width="2" fill="none"/>
<rect x="-2" y="3" width="4" height="5" fill="#f4a261"/><rect x="-8" y="8" width="16" height="4" rx="1.5" fill="url(#gold)"/>
<path d="M13 -18 l1.2 3 3 1.2 -3 1.2 -1.2 3 -1.2 -3 -3 -1.2 3 -1.2z" fill="#fff" class="spark"/></g></g></g></g></g>
<g transform="translate(240,100)">
  <g class="pop"><text x="0" y="0" text-anchor="middle" font-family="ui-monospace, SFMono-Regular, Menlo, Consolas, 'Liberation Mono', monospace" font-size="13" font-weight="800" fill="#00dbde" stroke="#0b0720" stroke-width="3" paint-order="stroke" letter-spacing=".5">+1 PAPER</text></g>
  <g class="pop popB"><text x="0" y="0" text-anchor="middle" font-family="ui-monospace, SFMono-Regular, Menlo, Consolas, 'Liberation Mono', monospace" font-size="13" font-weight="800" fill="#ffd166" stroke="#0b0720" stroke-width="3" paint-order="stroke" letter-spacing=".5">+1 AWARD</text></g>
</g>
<g transform="translate(18,30)">
  <text x="0" y="0" text-anchor="start" font-family="ui-monospace, SFMono-Regular, Menlo, Consolas, 'Liberation Mono', monospace" font-size="13" font-weight="800" fill="#f5f7ff" stroke="#0b0720" stroke-width="3" paint-order="stroke" letter-spacing=".5">1P WATIN</text>
  <g class="hearts" transform="translate(84,-11)"><path transform="translate(0,0)" d="M0 3 C0 0 4 -1 5 2 C6 -1 10 0 10 3 C10 6 5 9 5 10 C5 9 0 6 0 3z" fill="#ff4d8d" stroke="#1b1340" stroke-width="1"/><path transform="translate(14,0)" d="M0 3 C0 0 4 -1 5 2 C6 -1 10 0 10 3 C10 6 5 9 5 10 C5 9 0 6 0 3z" fill="#ff4d8d" stroke="#1b1340" stroke-width="1"/><path transform="translate(28,0)" d="M0 3 C0 0 4 -1 5 2 C6 -1 10 0 10 3 C10 6 5 9 5 10 C5 9 0 6 0 3z" fill="#ff4d8d" stroke="#1b1340" stroke-width="1"/></g>
</g>
<g transform="translate(450,30)">
  <text x="-6" y="0" text-anchor="end" font-family="ui-monospace, SFMono-Regular, Menlo, Consolas, 'Liberation Mono', monospace" font-size="13" font-weight="800" fill="#c9b8ff" stroke="#0b0720" stroke-width="3" paint-order="stroke" letter-spacing=".5">SCORE</text>
  <text class="s0" x="2" y="0" text-anchor="start" font-family="ui-monospace, SFMono-Regular, Menlo, Consolas, 'Liberation Mono', monospace" font-size="15" font-weight="800" fill="#f5f7ff" stroke="#0b0720" stroke-width="3" paint-order="stroke" letter-spacing=".5">002024</text><text class="s1" x="2" y="0" text-anchor="start" font-family="ui-monospace, SFMono-Regular, Menlo, Consolas, 'Liberation Mono', monospace" font-size="15" font-weight="800" fill="#f5f7ff" stroke="#0b0720" stroke-width="3" paint-order="stroke" letter-spacing=".5">002025</text><text class="s2" x="2" y="0" text-anchor="start" font-family="ui-monospace, SFMono-Regular, Menlo, Consolas, 'Liberation Mono', monospace" font-size="15" font-weight="800" fill="#f5f7ff" stroke="#0b0720" stroke-width="3" paint-order="stroke" letter-spacing=".5">002026</text>
</g>
<g transform="translate(882,30)">
  <text x="-104" y="0" text-anchor="end" font-family="ui-monospace, SFMono-Regular, Menlo, Consolas, 'Liberation Mono', monospace" font-size="12" font-weight="800" fill="#00dbde" stroke="#0b0720" stroke-width="3" paint-order="stroke" letter-spacing=".5">PAPERS</text>
  <text class="pO" x="-100" y="0" text-anchor="start" font-family="ui-monospace, SFMono-Regular, Menlo, Consolas, 'Liberation Mono', monospace" font-size="14" font-weight="800" fill="#f5f7ff" stroke="#0b0720" stroke-width="3" paint-order="stroke" letter-spacing=".5">×5</text><text class="pN" x="-100" y="0" text-anchor="start" font-family="ui-monospace, SFMono-Regular, Menlo, Consolas, 'Liberation Mono', monospace" font-size="14" font-weight="800" fill="#f5f7ff" stroke="#0b0720" stroke-width="3" paint-order="stroke" letter-spacing=".5">×6</text>
  <text x="-26" y="0" text-anchor="end" font-family="ui-monospace, SFMono-Regular, Menlo, Consolas, 'Liberation Mono', monospace" font-size="12" font-weight="800" fill="#ffd166" stroke="#0b0720" stroke-width="3" paint-order="stroke" letter-spacing=".5">AWARDS</text>
  <text class="aO" x="-22" y="0" text-anchor="start" font-family="ui-monospace, SFMono-Regular, Menlo, Consolas, 'Liberation Mono', monospace" font-size="14" font-weight="800" fill="#f5f7ff" stroke="#0b0720" stroke-width="3" paint-order="stroke" letter-spacing=".5">×9</text><text class="aN" x="-22" y="0" text-anchor="start" font-family="ui-monospace, SFMono-Regular, Menlo, Consolas, 'Liberation Mono', monospace" font-size="14" font-weight="800" fill="#f5f7ff" stroke="#0b0720" stroke-width="3" paint-order="stroke" letter-spacing=".5">×10</text>
</g>
<g transform="translate(18,248)"><text x="0" y="0" text-anchor="start" font-family="ui-monospace, SFMono-Regular, Menlo, Consolas, 'Liberation Mono', monospace" font-size="11" font-weight="800" fill="#9da7b3" stroke="#0b0720" stroke-width="3" paint-order="stroke" letter-spacing=".5">STAGE 2026 · TOKYO NIGHT RUN</text></g>
<g transform="translate(882,248)"><g class="press"><text x="0" y="0" text-anchor="end" font-family="ui-monospace, SFMono-Regular, Menlo, Consolas, 'Liberation Mono', monospace" font-size="11" font-weight="800" fill="#ff77c8" stroke="#0b0720" stroke-width="3" paint-order="stroke" letter-spacing=".5">▶ AUTO-PLAY</text></g></g>
<rect x="1.25" y="1.25" width="897.5" height="257.5" rx="18" fill="none" stroke="url(#flow)" stroke-width="2.5"/>
</g></svg>
